<svg width="206" height="69" viewBox="0 0 206 69" fill="none" xmlns="http://www.w3.org/2000/svg">
<path d="M10.504 68.576C7.432 68.576 4.936 67.616 3.016 65.696C1.16 63.776 0.232 60.896 0.232 57.056C0.232 55.456 0.488 53.376 1 50.816L7.528 20H21.352L14.44 52.64C14.248 53.408 14.152 54.208 14.152 55.04C14.152 57.856 15.112 59.264 17.032 59.264C18.824 59.264 20.36 58.528 21.64 57.056C22.92 55.52 23.944 53.44 24.712 50.816L31.24 20H45.064L38.152 52.64C37.832 54.24 37.672 55.392 37.672 56.096C37.672 58.208 38.76 59.264 40.936 59.264C43.88 59.264 46.6 57.408 49.096 53.696C51.656 49.984 53.704 45.568 55.24 40.448C56.776 35.328 57.544 30.912 57.544 27.2C57.416 27.52 57 27.776 56.296 27.968C55.592 28.096 54.984 28.16 54.472 28.16C53.384 28.16 52.52 27.648 51.88 26.624C51.304 25.6 51.016 24.48 51.016 23.264C51.016 21.728 51.496 20.48 52.456 19.52C53.48 18.56 54.984 18.08 56.968 18.08C59.08 18.08 60.616 18.88 61.576 20.48C62.536 22.016 63.016 24 63.016 26.432C63.016 32.192 62.024 38.368 60.04 44.96C58.056 51.488 55.016 57.056 50.92 61.664C46.824 66.272 41.736 68.576 35.656 68.576C32.52 68.576 29.96 67.904 27.976 66.56C25.992 65.216 24.712 63.2 24.136 60.512C20.552 65.888 16.008 68.576 10.504 68.576ZM78.4848 68.384C73.7488 68.384 70.0048 67.168 67.2528 64.736C64.5008 62.304 63.1247 58.464 63.1247 53.216C63.1247 48.864 64.0207 44.032 65.8128 38.72C67.6048 33.408 70.4848 28.832 74.4528 24.992C78.4208 21.088 83.4128 19.136 89.4288 19.136C97.6208 19.136 101.717 24.256 101.717 34.496V34.592C101.909 34.656 102.261 34.688 102.773 34.688C104.885 34.688 107.317 34.144 110.069 33.056C112.821 31.904 115.317 30.528 117.557 28.928L118.421 31.52C116.565 33.504 114.133 35.2 111.125 36.608C108.181 37.952 104.949 38.912 101.429 39.488C100.917 45.312 99.6048 50.4 97.4928 54.752C95.3808 59.104 92.6608 62.464 89.3328 64.832C86.0048 67.2 82.3888 68.384 78.4848 68.384ZM82.3248 59.744C83.8608 59.744 85.3968 58.88 86.9328 57.152C88.4688 55.36 89.8128 52.96 90.9648 49.952C92.1168 46.88 92.9488 43.488 93.4608 39.776C91.7328 39.392 90.8688 38.048 90.8688 35.744C90.8688 33.12 91.8608 31.392 93.8448 30.56C93.7168 28.448 93.3968 27.008 92.8848 26.24C92.3728 25.408 91.4768 24.992 90.1968 24.992C88.0848 24.992 86.0368 26.528 84.0528 29.6C82.0688 32.672 80.4688 36.352 79.2528 40.64C78.0368 44.928 77.4288 48.704 77.4288 51.968C77.4288 55.04 77.7808 57.12 78.4848 58.208C79.1888 59.232 80.4688 59.744 82.3248 59.744ZM118.176 68.576C114.528 68.576 111.488 67.328 109.056 64.832C106.624 62.336 105.408 58.432 105.408 53.12C105.408 48.384 106.336 43.424 108.192 38.24C110.112 32.992 112.928 28.576 116.64 24.992C120.416 21.344 124.896 19.52 130.08 19.52C132.704 19.52 134.656 19.968 135.936 20.864C137.216 21.76 137.856 22.944 137.856 24.416V24.8L142.56 2.72L156.768 0.799995L145.728 52.64C145.472 53.6 145.344 54.624 145.344 55.712C145.344 56.992 145.632 57.92 146.208 58.496C146.848 59.008 147.872 59.264 149.28 59.264C151.072 59.264 152.608 58.496 153.888 56.96C155.232 55.424 156.288 53.376 157.056 50.816H161.088C157.184 62.272 150.752 68 141.792 68C139.168 68 137.024 67.296 135.36 65.888C133.76 64.48 132.768 62.432 132.384 59.744C130.72 62.304 128.704 64.416 126.336 66.08C124.032 67.744 121.312 68.576 118.176 68.576ZM124.416 59.264C125.952 59.264 127.488 58.56 129.024 57.152C130.624 55.744 131.712 53.792 132.288 51.296V50.816L136.992 28.832C136.416 26.592 135.104 25.472 133.056 25.472C130.496 25.472 128.192 26.976 126.144 29.984C124.096 32.928 122.496 36.512 121.344 40.736C120.192 44.896 119.616 48.576 119.616 51.776C119.616 54.976 120.064 57.024 120.96 57.92C121.92 58.816 123.072 59.264 124.416 59.264ZM191.27 68.576C188.326 68.576 185.926 67.264 184.07 64.64C182.278 61.952 180.902 57.696 179.942 51.872L166.694 68H159.782L179.174 46.112L177.638 35.36C177.126 32.224 176.582 30.112 176.006 29.024C175.494 27.936 174.822 27.392 173.99 27.392C172.71 27.392 171.27 28.288 169.67 30.08C168.07 31.808 166.502 34.464 164.966 38.048C163.494 41.568 162.214 45.824 161.126 50.816H157.094C158.95 42.112 161.702 34.72 165.35 28.64C169.062 22.56 173.862 19.52 179.75 19.52C183.142 19.52 185.574 20.608 187.046 22.784C188.582 24.96 189.606 27.68 190.118 30.944L191.27 37.952C193.894 34.88 195.846 32.288 197.126 30.176C198.47 28.064 199.206 26.144 199.334 24.416C198.438 24.544 197.894 24.608 197.702 24.608C196.102 24.608 194.95 24.128 194.246 23.168C193.542 22.144 193.19 20.832 193.19 19.232C193.19 17.632 193.798 16.448 195.014 15.68C196.294 14.912 197.862 14.528 199.718 14.528C201.382 14.528 202.694 15.424 203.654 17.216C204.614 18.944 205.094 20.96 205.094 23.264C205.094 26.016 204.166 28.768 202.31 31.52C200.454 34.272 197.094 38.304 192.23 43.616L193.478 50.912C193.99 54.112 194.63 56.32 195.398 57.536C196.166 58.688 197.382 59.264 199.046 59.264C200.39 59.264 201.574 59.072 202.598 58.688C202.342 61.952 201.126 64.416 198.95 66.08C196.774 67.744 194.214 68.576 191.27 68.576Z" fill="white"/>
</svg>
